<svg width="31" height="32" viewBox="0 0 31 32" fill="none" xmlns="http://www.w3.org/2000/svg">
<path d="M30.9355 15.3077C30.8534 15.1042 30.7047 14.9336 30.513 14.8232C30.3213 14.7127 30.0976 14.6687 29.8775 14.6982C29.6575 14.7277 29.4538 14.8289 29.2989 14.9858C29.144 15.1427 29.0468 15.3462 29.0228 15.5639L26.9131 15.7981C26.8332 14.8595 26.633 13.9348 26.3173 13.046L28.4271 12.2022C28.5666 12.4001 28.7751 12.5404 29.0128 12.5963C29.2505 12.6522 29.5008 12.6198 29.7158 12.5053C29.9309 12.3908 30.0957 12.2022 30.1787 11.9756C30.2617 11.7489 30.2572 11.5 30.1661 11.2764C30.0749 11.0528 29.9034 10.8701 29.6843 10.7633C29.4653 10.6564 29.214 10.6329 28.9785 10.6971C28.7429 10.7613 28.5396 10.9089 28.4073 11.1115C28.2751 11.3142 28.2231 11.5578 28.2613 11.7958L26.174 12.6307C25.8673 11.8537 25.4737 11.1129 25.0004 10.422L28.2255 8.09393C28.4057 8.25628 28.6401 8.3476 28.8842 8.3505C29.1283 8.3534 29.3649 8.26768 29.549 8.10965C29.7331 7.95163 29.8519 7.73234 29.8827 7.49355C29.9134 7.25476 29.8541 7.01314 29.7159 6.81471C29.5777 6.61629 29.3704 6.47491 29.1333 6.4175C28.8963 6.36009 28.6461 6.39066 28.4305 6.5034C28.2148 6.61613 28.0487 6.80314 27.9639 7.02883C27.879 7.25452 27.8812 7.50311 27.9702 7.72727L24.7406 10.0597C24.1476 9.24835 23.4488 8.51759 22.6622 7.8863L24.006 6.26066C24.0788 6.30038 24.1573 6.3287 24.2389 6.34459C24.4694 6.39364 24.7101 6.36107 24.9186 6.2526C25.1272 6.14412 25.2904 5.96667 25.3795 5.75138C25.4686 5.53609 25.478 5.29672 25.406 5.07527C25.3341 4.85383 25.1853 4.66446 24.9859 4.5404C24.7864 4.41634 24.5491 4.36551 24.3154 4.39683C24.0818 4.42815 23.8668 4.53963 23.7082 4.71169C23.5495 4.88376 23.4574 5.10542 23.448 5.33778C23.4386 5.57013 23.5124 5.79834 23.6566 5.98236L22.3128 7.61242C21.5624 7.04936 20.7438 6.58045 19.8761 6.21648L20.5659 4.77637C20.8062 4.8273 21.0571 4.78949 21.2709 4.67012C21.4848 4.55074 21.6468 4.35811 21.7263 4.12874C21.8057 3.89938 21.797 3.64925 21.7018 3.42579C21.6067 3.20232 21.4317 3.02108 21.21 2.91642C20.9883 2.81177 20.7354 2.79099 20.4992 2.85802C20.2631 2.92505 20.0601 3.07523 19.9287 3.28008C19.7974 3.48493 19.7468 3.7302 19.7867 3.96936C19.8265 4.20852 19.954 4.42495 20.1449 4.57759L19.4685 6.03537C18.8007 5.77725 18.1092 5.58345 17.4035 5.45667L17.9635 2.85034C18.1512 2.847 18.3342 2.79155 18.4914 2.69034C18.6486 2.58914 18.7738 2.44627 18.8524 2.27813C18.9311 2.10999 18.9601 1.92339 18.9362 1.73973C18.9122 1.55607 18.8363 1.38278 18.717 1.23975C18.5978 1.09672 18.4401 0.989725 18.262 0.93105C18.0839 0.872375 17.8926 0.864391 17.7101 0.908014C17.5277 0.951637 17.3613 1.0451 17.2303 1.17768C17.0992 1.31027 17.0087 1.4766 16.969 1.65761C16.921 1.87532 16.9498 2.10269 17.0509 2.30197C17.1519 2.50126 17.319 2.66046 17.5245 2.75315L16.9601 5.40366C16.3967 5.31994 15.8277 5.27859 15.258 5.27997C14.8629 5.27831 14.4681 5.29895 14.0754 5.34182L13.9276 1.9315C14.1047 1.88568 14.2653 1.79188 14.3912 1.66072C14.517 1.52957 14.6032 1.36628 14.6398 1.18936C14.6808 0.99868 14.6635 0.800302 14.5901 0.619326C14.5167 0.43835 14.3906 0.28291 14.2276 0.172678C14.0646 0.0624455 13.8721 0.00237526 13.6745 6.89915e-05C13.4768 -0.00223728 13.283 0.0533241 13.1174 0.159722C12.9518 0.26612 12.8219 0.418571 12.7442 0.597784C12.6665 0.776997 12.6445 0.974916 12.6809 1.16649C12.7172 1.35807 12.8104 1.5347 12.9487 1.67402C13.0869 1.81334 13.2639 1.9091 13.4573 1.94917L13.6096 5.39041C12.8934 5.48379 12.1882 5.64655 11.5043 5.87633L10.7473 3.26117C10.8719 3.192 10.9803 3.09758 11.0652 2.98413C11.1501 2.87067 11.2097 2.74077 11.2401 2.60296C11.2813 2.4121 11.264 2.21348 11.1906 2.03228C11.1172 1.85108 10.9909 1.69546 10.8276 1.58517C10.6644 1.47488 10.4717 1.41488 10.2738 1.41278C10.076 1.41068 9.88194 1.46658 9.71634 1.57338C9.55075 1.68018 9.42105 1.83308 9.34369 2.01268C9.26634 2.19228 9.2448 2.3905 9.28183 2.58218C9.31886 2.77387 9.41278 2.95039 9.55167 3.08936C9.69057 3.22833 9.86819 3.32349 10.062 3.36277C10.1496 3.37566 10.2387 3.37566 10.3263 3.36277L11.0922 6.01328C10.4029 6.26491 9.74105 6.58459 9.11687 6.96746L7.57152 4.49807C7.71546 4.3661 7.8141 4.19315 7.85371 4.00331C7.89446 3.81282 7.87707 3.61468 7.80372 3.43394C7.73037 3.25319 7.60436 3.09792 7.4416 2.98775C7.27883 2.87758 7.08662 2.81745 6.88923 2.81493C6.69183 2.81242 6.49811 2.86765 6.33253 2.97365C6.16694 3.07964 6.03691 3.23165 5.95886 3.41047C5.88081 3.58929 5.85823 3.78692 5.89399 3.97838C5.92974 4.16985 6.02223 4.34658 6.15975 4.48625C6.29728 4.62591 6.47369 4.72226 6.6667 4.76312C6.84232 4.8022 7.02556 4.79148 7.19526 4.7322L8.71821 7.20601C8.1047 7.60387 7.533 8.06114 7.01161 8.57102L5.89179 7.44897C5.93501 7.36982 5.96668 7.28505 5.98585 7.19717C6.0266 7.00668 6.00921 6.80855 5.93586 6.6278C5.86251 6.44705 5.7365 6.29178 5.57373 6.18161C5.41097 6.07144 5.21876 6.01131 5.02137 6.0088C4.82398 6.00628 4.63025 6.06151 4.46467 6.16751C4.29908 6.2735 4.16905 6.42551 4.091 6.60433C4.01295 6.78316 3.99037 6.98078 4.02613 7.17225C4.06188 7.36371 4.15437 7.54044 4.29189 7.68011C4.42942 7.81977 4.60583 7.91612 4.79884 7.95698C4.93453 7.982 5.07394 7.97963 5.20867 7.95002C5.3434 7.92041 5.47065 7.86417 5.58272 7.7847L6.69358 8.88466C5.93068 9.67233 5.28791 10.5652 4.78541 11.5352L2.89515 10.5854C2.95823 10.3547 2.93413 10.1092 2.82733 9.89472C2.72053 9.68022 2.53832 9.51132 2.31462 9.41948C2.09093 9.32764 1.84101 9.31912 1.61142 9.3955C1.38183 9.47189 1.18822 9.62797 1.06666 9.83468C0.945088 10.0414 0.903852 10.2846 0.950628 10.5191C0.997403 10.7536 1.129 10.9633 1.32091 11.1091C1.51282 11.255 1.75196 11.3271 1.99377 11.3121C2.23559 11.297 2.46361 11.1957 2.63535 11.0272L2.68462 10.9697L4.60176 11.9504C4.16893 12.862 3.86017 13.826 3.6835 14.8174L1.99929 14.4772C1.99156 14.2508 1.90494 14.034 1.75403 13.8632C1.60311 13.6924 1.39713 13.5781 1.17076 13.5396C0.944402 13.5011 0.711501 13.5407 0.511293 13.6518C0.311084 13.7628 0.155805 13.9385 0.0716124 14.1493C-0.01258 14.3601 -0.02054 14.593 0.0490728 14.8089C0.118686 15.0248 0.261617 15.2104 0.453789 15.3345C0.645962 15.4586 0.875632 15.5136 1.10411 15.4902C1.33259 15.4668 1.54591 15.3665 1.70814 15.2061C1.79416 15.1204 1.86395 15.0201 1.91419 14.9101L3.61631 15.2459C3.5404 15.7712 3.50298 16.3012 3.50433 16.8318C3.50384 17.3504 3.53976 17.8685 3.61183 18.3823L1.94106 18.5678C1.86169 18.3455 1.70412 18.1586 1.49696 18.0411C1.28979 17.9236 1.04677 17.8832 0.811995 17.9273C0.577221 17.9714 0.366261 18.0971 0.217406 18.2815C0.0685519 18.4659 -0.00832998 18.6968 0.000716328 18.9323C0.00976264 19.1678 0.104137 19.3924 0.26671 19.5651C0.429282 19.7379 0.649276 19.8474 0.88676 19.8739C1.12424 19.9004 1.36347 19.842 1.56103 19.7093C1.75858 19.5767 1.90136 19.3786 1.96346 19.151C1.97673 19.1032 1.98573 19.0545 1.99033 19.0052L3.67902 18.8196C3.82796 19.6834 4.07902 20.527 4.42706 21.3332L2.18742 22.2167C2.05572 22.0292 1.86026 21.8944 1.63647 21.8368C1.44569 21.7858 1.24383 21.7917 1.05647 21.8539C0.869109 21.916 0.704661 22.0316 0.583945 22.186C0.46323 22.3404 0.391676 22.5266 0.378343 22.7211C0.36501 22.9156 0.410498 23.1097 0.509047 23.2787C0.607597 23.4477 0.754776 23.584 0.931952 23.6705C1.10913 23.7569 1.30833 23.7896 1.50435 23.7644C1.70036 23.7391 1.88437 23.6571 2.03308 23.5286C2.18178 23.4002 2.2885 23.2311 2.33972 23.0428C2.37085 22.9046 2.37085 22.7613 2.33972 22.6231L4.57936 21.7396C4.9064 22.4315 5.30413 23.0887 5.76637 23.701L2.57712 26.0467C2.46583 25.9479 2.33223 25.8767 2.18742 25.8391C1.99588 25.7878 1.79319 25.794 1.60522 25.8568C1.41724 25.9196 1.2525 26.0362 1.13201 26.1917C1.01152 26.3473 0.940748 26.5347 0.928717 26.7301C0.916686 26.9254 0.963944 27.1199 1.06446 27.2887C1.16498 27.4575 1.3142 27.5929 1.49309 27.6777C1.67198 27.7625 1.87242 27.7928 2.06884 27.7647C2.26527 27.7367 2.44877 27.6516 2.59594 27.5202C2.74311 27.3889 2.84728 27.2173 2.89515 27.0274C2.95581 26.8148 2.93836 26.5879 2.84588 26.3868L6.07992 24.0544C6.49936 24.5734 6.96399 25.0553 7.46849 25.4945L6.062 27.1908C6.00503 27.161 5.94496 27.1373 5.88283 27.1201C5.65484 27.0604 5.41273 27.0825 5.19974 27.1825C4.98676 27.2826 4.81677 27.454 4.72016 27.6663C4.62354 27.8785 4.60658 28.1177 4.67232 28.3412C4.73805 28.5646 4.88219 28.7577 5.07899 28.886C5.27579 29.0143 5.51243 29.0694 5.74663 29.0415C5.98084 29.0136 6.19735 28.9045 6.3575 28.7337C6.51764 28.5628 6.61099 28.3414 6.62086 28.1089C6.63073 27.8765 6.55649 27.6482 6.41138 27.4647L7.82236 25.7772C8.33709 26.2097 8.89028 26.5956 9.47521 26.9302L8.90187 28.1273H8.83916C8.60521 28.0651 8.35631 28.0889 8.13881 28.1942C7.92132 28.2996 7.75006 28.4793 7.65693 28.6999C7.56381 28.9205 7.55517 29.1669 7.63262 29.3934C7.71007 29.6198 7.86834 29.8107 8.07794 29.9306C8.28753 30.0505 8.53418 30.0912 8.77192 30.045C9.00967 29.9989 9.2223 29.8691 9.37023 29.6799C9.51815 29.4906 9.59127 29.2548 9.57598 29.0163C9.56068 28.7778 9.45801 28.5529 9.28708 28.3836L9.86939 27.1599C10.5763 27.5207 11.3194 27.808 12.0866 28.0169L11.6387 30.0313C11.3945 30.018 11.1539 30.0935 10.9624 30.2435C10.7709 30.3934 10.6419 30.6075 10.5997 30.845C10.5575 31.0826 10.6052 31.3271 10.7336 31.5323C10.8621 31.7375 11.0624 31.8892 11.2966 31.9585C11.5308 32.0278 11.7827 32.0099 12.0044 31.9083C12.2262 31.8067 12.4025 31.6284 12.4999 31.4072C12.5973 31.186 12.609 30.9372 12.5328 30.7081C12.4567 30.4789 12.2979 30.2853 12.0866 30.1638L12.5346 28.1273C13.2214 28.2885 13.9215 28.389 14.6264 28.4277L14.6801 29.6514C14.5114 29.6943 14.3573 29.7808 14.2337 29.9019C14.1101 30.023 14.0215 30.1744 13.9769 30.3405C13.9254 30.5285 13.9316 30.7273 13.9946 30.9118C14.0577 31.0964 14.1748 31.2583 14.3311 31.3773C14.4874 31.4962 14.676 31.5668 14.873 31.5801C15.07 31.5934 15.2665 31.5489 15.4378 31.4521C15.6092 31.3552 15.7475 31.2105 15.8355 31.0362C15.9235 30.8619 15.9571 30.6657 15.9321 30.4726C15.9071 30.2794 15.8246 30.0979 15.695 29.951C15.5655 29.804 15.3947 29.6982 15.2042 29.647H15.1281L15.0743 28.4542H15.2535C16.0281 28.4556 16.801 28.3802 17.5603 28.2289L18.0486 29.912C17.827 29.995 17.6429 30.1533 17.5292 30.3584C17.4156 30.5635 17.3799 30.8019 17.4287 31.0306C17.4775 31.2593 17.6074 31.4633 17.7952 31.6059C17.983 31.7484 18.2163 31.8201 18.4529 31.8081C18.6896 31.7961 18.9141 31.7011 19.0861 31.5403C19.258 31.3795 19.3661 31.1634 19.3908 30.931C19.4155 30.6985 19.3552 30.465 19.2208 30.2726C19.0864 30.0801 18.8867 29.9412 18.6577 29.8811C18.6048 29.868 18.5509 29.8591 18.4965 29.8546L17.9769 28.0787C19.0465 27.8277 20.0738 27.426 21.0273 26.886L22.1471 28.653C22.015 28.7722 21.9189 28.9251 21.8694 29.0948C21.8119 29.282 21.8123 29.4819 21.8704 29.6689C21.9285 29.856 22.0418 30.0217 22.1958 30.145C22.3498 30.2683 22.5375 30.3436 22.7351 30.3613C22.9327 30.379 23.1311 30.3383 23.3051 30.2443C23.4791 30.1504 23.6208 30.0075 23.7121 29.8338C23.8034 29.6602 23.8403 29.4636 23.8179 29.2692C23.7956 29.0748 23.715 28.8914 23.5866 28.7423C23.4582 28.5933 23.2876 28.4853 23.0967 28.4321C22.9128 28.3768 22.7163 28.3768 22.5323 28.4321L21.417 26.6651C22.0699 26.2653 22.6806 25.8021 23.24 25.2825L25.314 27.341C25.2591 27.4222 25.2182 27.5117 25.193 27.6061C25.1378 27.7938 25.1405 27.9935 25.2007 28.1797C25.261 28.366 25.376 28.5303 25.5312 28.6519C25.6865 28.7734 25.8748 28.8467 26.0724 28.8624C26.27 28.878 26.4678 28.8353 26.6407 28.7398C26.8136 28.6442 26.9538 28.5001 27.0434 28.3257C27.133 28.1513 27.1679 27.9546 27.1438 27.7606C27.1197 27.5666 27.0376 27.384 26.908 27.2361C26.7784 27.0882 26.607 26.9818 26.4159 26.9302C26.2843 26.894 26.1466 26.8855 26.0115 26.9053C25.8764 26.925 25.7471 26.9727 25.632 27.045L23.5626 24.9953C24.2816 24.2822 24.9021 23.4787 25.408 22.6054L27.0833 23.4359C27.019 23.673 27.0455 23.9252 27.1577 24.1442C27.27 24.3632 27.4601 24.5338 27.6918 24.6234C27.9234 24.7129 28.1805 24.7152 28.4137 24.6297C28.647 24.5443 28.8402 24.3771 28.9564 24.1601C29.0726 23.9431 29.1037 23.6914 29.0437 23.4533C28.9837 23.2151 28.8369 23.007 28.6313 22.8688C28.4256 22.7306 28.1756 22.672 27.9289 22.7041C27.6822 22.7362 27.4561 22.8567 27.2938 23.0428L25.6365 22.1946C26.0521 21.4197 26.3752 20.6 26.5995 19.7517L27.903 20.008C27.9074 20.1245 27.9316 20.2395 27.9746 20.3481C28.0485 20.5289 28.1751 20.684 28.3385 20.7938C28.5018 20.9036 28.6945 20.9632 28.8921 20.9649C29.0898 20.9667 29.2835 20.9106 29.4488 20.8037C29.6141 20.6968 29.7435 20.544 29.8207 20.3645C29.8979 20.1851 29.9193 19.9871 29.8824 19.7956C29.8454 19.6041 29.7516 19.4277 29.613 19.2888C29.4743 19.1499 29.297 19.0547 29.1034 19.0152C28.9098 18.9757 28.7088 18.9937 28.5256 19.067C28.2826 19.1586 28.0862 19.3412 27.9791 19.575L26.6891 19.3232C26.8713 18.5049 26.963 17.6696 26.9623 16.8318C26.9623 16.633 26.9623 16.4342 26.9623 16.2398L29.0855 16.0057C29.0835 16.0203 29.0835 16.0352 29.0855 16.0499C29.1897 16.2855 29.3831 16.4716 29.6245 16.5685C29.8659 16.6654 30.1361 16.6654 30.3775 16.5686C30.6189 16.4718 30.8124 16.2857 30.9166 16.0501C31.0209 15.8146 31.0276 15.5481 30.9355 15.3077ZM23.8985 15.3077C24.0529 15.4814 24.142 15.7022 24.151 15.933C24.16 16.1638 24.0882 16.3907 23.9478 16.5755C23.911 16.62 23.8705 16.6613 23.8268 16.6992C23.6505 16.8509 23.4259 16.937 23.192 16.9427C22.958 16.9483 22.7294 16.8731 22.5458 16.7302C22.4993 16.6939 22.4558 16.6541 22.4159 16.6109C22.3402 16.5249 22.281 16.4261 22.2412 16.3193C22.1506 16.1036 22.1411 15.863 22.2143 15.6409C22.2876 15.4189 22.4388 15.2299 22.6407 15.1079C22.8427 14.986 23.0821 14.9391 23.3159 14.9757C23.5498 15.0124 23.7627 15.1301 23.9164 15.3077H23.8985ZM22.2636 14.1194C22.278 14.1337 22.2901 14.1501 22.2994 14.168C22.346 14.2308 22.3785 14.3027 22.3947 14.3789C22.4109 14.4551 22.4105 14.5338 22.3935 14.6098C22.374 14.7334 22.3105 14.8462 22.2143 14.9278C22.1189 15.0122 21.997 15.0617 21.869 15.0682C21.741 15.0746 21.6147 15.0375 21.511 14.9632C21.4717 14.9399 21.4368 14.91 21.408 14.8748C21.3342 14.7951 21.2872 14.6948 21.2736 14.5877C21.2577 14.4946 21.2661 14.399 21.2983 14.31C21.3305 14.2211 21.3852 14.1418 21.4573 14.0797C21.5128 14.0298 21.5777 13.9913 21.6483 13.9663C21.7189 13.9413 21.7939 13.9303 21.8688 13.934C21.9438 13.9377 22.0172 13.956 22.085 13.9878C22.1527 14.0196 22.2134 14.0644 22.2636 14.1194ZM20.1135 8.45616C20.3095 8.28452 20.5662 8.19611 20.8279 8.21018C21.0896 8.22424 21.3351 8.33963 21.511 8.53126C21.6162 8.64844 21.6901 8.78964 21.726 8.94209C21.7722 9.11666 21.7681 9.30045 21.7143 9.47287C21.6605 9.64529 21.5591 9.79954 21.4215 9.91836C21.2267 10.0876 20.9731 10.1763 20.7137 10.1657C20.5558 10.1543 20.4026 10.1075 20.2658 10.0288C20.1783 9.9765 20.0997 9.9109 20.0329 9.83442C19.8656 9.64039 19.7807 9.39022 19.7957 9.13598C19.8107 8.88173 19.9245 8.64299 20.1135 8.46941V8.45616ZM19.5402 10.9079C19.7086 10.9206 19.8744 10.9563 20.0329 11.0139C20.3038 11.113 20.5454 11.2769 20.7361 11.491C21.0168 11.7931 21.176 12.1857 21.1841 12.5954C21.1938 12.806 21.1603 13.0163 21.0855 13.2138C20.9874 13.4919 20.8176 13.7401 20.5928 13.9339C20.2927 14.2064 19.9031 14.3632 19.4954 14.3756C19.2797 14.3842 19.0642 14.3543 18.8593 14.2873C18.5754 14.1873 18.3225 14.0169 18.1247 13.7925C18.0601 13.7219 18.0031 13.6449 17.9545 13.5628C17.8636 13.4267 17.7941 13.2777 17.7484 13.1211C17.659 12.8069 17.6616 12.4743 17.7559 12.1616C17.8503 11.8488 18.0325 11.5689 18.2815 11.354C18.4514 11.2027 18.6503 11.0864 18.8664 11.0121C19.0826 10.9377 19.3117 10.9068 19.5402 10.9211V10.9079ZM18.501 19.0361C18.5231 19.015 18.5471 18.9958 18.5726 18.9787C18.6325 18.925 18.7038 18.8852 18.7814 18.8623C18.8589 18.8394 18.9406 18.8339 19.0206 18.8461C19.0896 18.8508 19.157 18.8693 19.2186 18.9004C19.2802 18.9315 19.3347 18.9747 19.3789 19.0273C19.447 19.1013 19.4931 19.1925 19.512 19.2907C19.531 19.3889 19.5221 19.4903 19.4864 19.5839C19.4631 19.6799 19.4079 19.7654 19.3296 19.8268C19.2236 19.9171 19.0877 19.9659 18.9476 19.9641C18.8075 19.9623 18.6729 19.91 18.5693 19.817C18.4656 19.7241 18.4001 19.5969 18.385 19.4595C18.37 19.3222 18.4064 19.1841 18.4875 19.0714L18.501 19.0361ZM18.604 15.2945C18.679 15.2304 18.7767 15.1982 18.8756 15.2049C18.9746 15.2115 19.067 15.2564 19.1325 15.3298C19.1546 15.355 19.1727 15.3833 19.1863 15.4137C19.2254 15.4935 19.2339 15.5846 19.2102 15.6701C19.1865 15.7556 19.1322 15.8297 19.0573 15.8788C18.9824 15.9278 18.8921 15.9484 18.803 15.9369C18.7139 15.9253 18.632 15.8822 18.5726 15.8157C18.5401 15.7776 18.5144 15.7343 18.4965 15.6876C18.4764 15.6207 18.4758 15.5496 18.4948 15.4824C18.5138 15.4152 18.5517 15.3547 18.604 15.3077V15.2945ZM16.5883 14.2519C16.6208 14.2901 16.6466 14.3334 16.6645 14.38C16.6857 14.4493 16.6864 14.5231 16.6666 14.5927C16.6468 14.6624 16.6072 14.725 16.5525 14.7732C16.514 14.8075 16.4685 14.8332 16.419 14.8484C16.3695 14.8637 16.3172 14.8682 16.2658 14.8616C16.2075 14.8547 16.1517 14.8344 16.1028 14.8025C16.0539 14.7705 16.0132 14.7277 15.984 14.6775C15.9549 14.6273 15.938 14.571 15.9348 14.5133C15.9317 14.4555 15.9422 14.3977 15.9657 14.3447C15.9873 14.2971 16.0194 14.2548 16.0598 14.221C16.1359 14.158 16.2342 14.1273 16.3333 14.1356C16.4323 14.1439 16.524 14.1905 16.5883 14.2652V14.2519ZM14.5413 9.07461C14.6262 9.00068 14.7315 8.95323 14.8438 8.93826C14.9561 8.9233 15.0704 8.94148 15.1722 8.99051C15.274 9.03955 15.3588 9.11724 15.4159 9.21378C15.473 9.31031 15.4998 9.42137 15.4929 9.53291C15.486 9.64445 15.4458 9.75149 15.3773 9.8405C15.3088 9.92951 15.215 9.9965 15.108 10.033C15.0009 10.0695 14.8852 10.0739 14.7756 10.0457C14.6659 10.0174 14.5673 9.95772 14.492 9.87418C14.3919 9.76132 14.3409 9.61409 14.3502 9.46442C14.3594 9.31475 14.4281 9.17469 14.5413 9.07461ZM14.3263 11.6721C14.3804 11.5852 14.4467 11.5064 14.5234 11.438C14.6774 11.3053 14.8688 11.222 15.072 11.1991C15.2752 11.1762 15.4807 11.2148 15.6611 11.3099C15.7636 11.3667 15.8559 11.4399 15.9343 11.5263C15.974 11.5705 16.01 11.6177 16.0418 11.6677C16.163 11.8657 16.2097 12.0995 16.1737 12.3281C16.1377 12.5567 16.0212 12.7654 15.8448 12.9178C15.8183 12.9409 15.7898 12.9616 15.7596 12.9797C15.6136 13.0828 15.4415 13.1439 15.2624 13.1564C15.1087 13.169 14.9542 13.146 14.8111 13.0892C14.668 13.0325 14.5403 12.9435 14.4383 12.8295C14.4134 12.8035 14.3909 12.7754 14.3711 12.7456C14.2597 12.5897 14.1967 12.4053 14.1895 12.2147C14.1823 12.0242 14.2314 11.8357 14.3308 11.6721H14.3263ZM13.2647 10.444C13.3397 10.38 13.4373 10.3478 13.5363 10.3544C13.6353 10.361 13.7277 10.406 13.7932 10.4794C13.8077 10.4936 13.8198 10.51 13.8291 10.528C13.8622 10.5836 13.8796 10.6468 13.8796 10.7113C13.8796 10.7758 13.8622 10.839 13.8291 10.8946C13.8091 10.9333 13.7817 10.9678 13.7484 10.9962C13.7118 11.0287 13.669 11.0538 13.6226 11.0698C13.5761 11.0859 13.5268 11.0927 13.4776 11.0898C13.4284 11.0869 13.3803 11.0744 13.3361 11.0531C13.2918 11.0317 13.2523 11.0019 13.2199 10.9653C13.1577 10.8892 13.128 10.7922 13.1372 10.6948C13.1464 10.5975 13.1938 10.5075 13.2692 10.444H13.2647ZM9.74845 8.8184C9.80793 8.65718 9.89589 8.50762 10.0082 8.37665C10.0592 8.31388 10.1162 8.25618 10.1785 8.20436C10.3724 8.03379 10.6051 7.91181 10.8569 7.84875C11.1088 7.7857 11.3723 7.78342 11.6253 7.84213C11.8146 7.88031 11.9943 7.95541 12.1538 8.063C12.2788 8.14109 12.3919 8.23628 12.4898 8.34572C12.7106 8.5853 12.8535 8.88475 12.8998 9.20531C12.9461 9.52588 12.8938 9.85277 12.7496 10.1437C12.6649 10.3082 12.5529 10.4575 12.4181 10.5854L12.3464 10.6561C12.1434 10.8311 11.9007 10.9553 11.6387 11.0183C11.4756 11.0536 11.3083 11.067 11.1415 11.0581C10.7131 11.0248 10.3146 10.8284 10.0306 10.5103C9.82654 10.2833 9.69174 10.0039 9.6418 9.70454C9.59186 9.40515 9.62884 9.09794 9.74845 8.8184ZM8.24341 18.9787C8.15261 19.0593 8.03789 19.109 7.91623 19.1204C7.79457 19.1317 7.67243 19.1041 7.56791 19.0417C7.46338 18.9793 7.38203 18.8853 7.33588 18.7737C7.28974 18.6621 7.28127 18.5388 7.31172 18.4221C7.33476 18.3082 7.39636 18.2054 7.48641 18.1305C7.54273 18.0815 7.60834 18.0439 7.67946 18.02C7.75058 17.9961 7.82579 17.9864 7.90075 17.9913C7.97571 17.9962 8.04894 18.0158 8.11621 18.0487C8.18348 18.0817 8.24346 18.1275 8.29268 18.1835C8.32638 18.22 8.35363 18.2618 8.37331 18.3072C8.43046 18.4174 8.44872 18.5433 8.42519 18.6649C8.40166 18.7865 8.3377 18.8969 8.24341 18.9787ZM10.5099 14.2475C10.3356 14.0509 10.2472 13.7942 10.264 13.5336C10.2808 13.2729 10.4014 13.0293 10.5995 12.856L10.6667 12.8074C10.7974 12.7095 10.9519 12.6471 11.1146 12.6263C11.3099 12.5992 11.5089 12.6295 11.6868 12.7134C11.8648 12.7973 12.0137 12.931 12.115 13.0978C12.2163 13.2646 12.2655 13.4572 12.2565 13.6515C12.2475 13.8457 12.1806 14.0331 12.0642 14.1901C12.0239 14.2439 11.9773 14.2928 11.9254 14.3359C11.7257 14.5091 11.4645 14.5972 11.1991 14.5806C10.9337 14.564 10.6858 14.4442 10.5099 14.2475ZM11.7552 17.4811C11.7155 17.3766 11.7084 17.2627 11.7347 17.1541C11.761 17.0455 11.8196 16.9471 11.903 16.8715C11.9594 16.8221 12.0251 16.7841 12.0965 16.7598C12.1678 16.7355 12.2433 16.7253 12.3186 16.7298C12.3939 16.7343 12.4676 16.7535 12.5354 16.7861C12.6032 16.8188 12.6638 16.8643 12.7137 16.9201C12.7502 16.9612 12.7804 17.0074 12.8033 17.0571C12.8491 17.1534 12.8647 17.2611 12.8481 17.3663C12.8335 17.5025 12.768 17.6284 12.6645 17.7197C12.5478 17.8163 12.3971 17.8635 12.2453 17.8511C12.0934 17.8387 11.9527 17.7676 11.8537 17.6534C11.8092 17.6033 11.7757 17.5446 11.7552 17.4811ZM8.97801 15.8467C8.95261 15.9465 8.89624 16.0361 8.81676 16.1029C8.74936 16.1621 8.66759 16.2032 8.57936 16.2221C8.49516 16.2442 8.40695 16.247 8.32153 16.2301C8.2361 16.2133 8.15574 16.1773 8.08664 16.125L8.00601 16.0499C7.95469 15.9933 7.91616 15.9267 7.89299 15.8543C7.86982 15.7819 7.86254 15.7055 7.87163 15.6302C7.88143 15.4854 7.94909 15.3504 8.05976 15.2547C8.1158 15.2054 8.18118 15.1675 8.25213 15.1433C8.32308 15.119 8.3982 15.1089 8.47316 15.1134C8.54811 15.1179 8.62142 15.137 8.68885 15.1696C8.75628 15.2022 8.8165 15.2476 8.86603 15.3033C8.93203 15.3759 8.97719 15.4645 8.99688 15.56C9.01656 15.6555 9.01005 15.7545 8.97801 15.8467ZM5.73949 13.9427C5.77626 13.9108 5.81903 13.8864 5.86538 13.8707C5.91173 13.8551 5.96074 13.8487 6.00961 13.8518C6.05848 13.8549 6.10626 13.8674 6.15022 13.8887C6.19418 13.91 6.23346 13.9396 6.26581 13.9758C6.29816 14.0121 6.32296 14.0543 6.33878 14.1C6.3546 14.1457 6.36113 14.194 6.35801 14.2422C6.35489 14.2904 6.34218 14.3376 6.3206 14.3809C6.29901 14.4243 6.26898 14.463 6.23221 14.4949C6.15797 14.5593 6.0608 14.592 5.9621 14.5858C5.86339 14.5796 5.77124 14.535 5.7059 14.4618C5.64056 14.3885 5.60739 14.2927 5.61369 14.1954C5.61999 14.098 5.66524 14.0071 5.73949 13.9427ZM5.96346 17.6181C5.83256 17.4722 5.74844 17.2914 5.72174 17.0984C5.69503 16.9054 5.72694 16.7089 5.81343 16.5338C5.89992 16.3587 6.0371 16.2128 6.20764 16.1146C6.37819 16.0163 6.57444 15.9701 6.77158 15.9819C6.96873 15.9936 7.15792 16.0627 7.31526 16.1804C7.47259 16.2982 7.591 16.4593 7.65552 16.6434C7.72004 16.8275 7.72777 17.0263 7.67774 17.2147C7.62771 17.4032 7.52216 17.5727 7.37443 17.702C7.27623 17.7879 7.16182 17.854 7.03774 17.8962C6.91366 17.9385 6.78235 17.9563 6.6513 17.9485C6.52026 17.9407 6.39206 17.9075 6.27403 17.8508C6.156 17.7941 6.05047 17.715 5.96346 17.6181ZM12.324 22.0974L12.3016 22.0709C12.2196 21.9562 12.1834 21.8157 12.2 21.6763C12.2165 21.5369 12.2846 21.4085 12.3912 21.3155C12.4841 21.2334 12.6026 21.1851 12.7272 21.1786C12.8474 21.1679 12.9679 21.1951 13.0713 21.2564C13.1748 21.3176 13.2558 21.4097 13.3027 21.5194C13.3496 21.6291 13.3599 21.7506 13.3321 21.8664C13.3043 21.9822 13.2399 22.0863 13.1482 22.1637C13.0901 22.2136 13.0224 22.2515 12.9492 22.2752C12.876 22.2989 12.7988 22.3079 12.722 22.3018C12.6452 22.2956 12.5704 22.2743 12.5021 22.2393C12.4337 22.2042 12.3732 22.1559 12.324 22.0974ZM15.6073 25.2869C15.4146 25.4569 15.1847 25.5808 14.9355 25.6491C14.789 25.6859 14.6386 25.7052 14.4875 25.7065C14.2436 25.7085 14.0021 25.6587 13.7795 25.5603C13.5569 25.462 13.3584 25.3175 13.1975 25.1367L13.1572 25.0881C13.0064 24.9068 12.8965 24.696 12.8347 24.4696C12.7621 24.2097 12.754 23.9364 12.8109 23.6727C12.8678 23.409 12.9881 23.1627 13.1617 22.9544C13.22 22.8829 13.2844 22.8164 13.3543 22.7556C13.462 22.6603 13.5826 22.58 13.7126 22.5171C13.909 22.417 14.1238 22.3569 14.3442 22.3404C14.494 22.3275 14.6449 22.3364 14.7921 22.3669C15.1669 22.4306 15.5075 22.6212 15.7552 22.9058C15.905 23.0713 16.0201 23.2643 16.0939 23.4739C16.1676 23.6835 16.1985 23.9054 16.1847 24.1268C16.171 24.3482 16.1129 24.5647 16.0138 24.7638C15.9147 24.9629 15.7765 25.1407 15.6073 25.2869ZM15.0206 20.9268C15.0736 20.8825 15.1377 20.8529 15.2063 20.8413C15.2748 20.8296 15.3452 20.8363 15.4103 20.8605C15.4628 20.8832 15.5101 20.9162 15.5491 20.9577C15.5971 21.0216 15.623 21.0991 15.623 21.1786C15.623 21.2581 15.5971 21.3356 15.5491 21.3995C15.5321 21.4222 15.5126 21.4429 15.4909 21.4613C15.4166 21.5258 15.3195 21.5585 15.2208 21.5522C15.1221 21.546 15.0299 21.5014 14.9646 21.4282C14.8992 21.355 14.8661 21.2591 14.8724 21.1618C14.8787 21.0645 14.9239 20.9736 14.9982 20.9091L15.0206 20.9268ZM16.6734 17.3928C16.6374 17.4539 16.5938 17.5103 16.5435 17.5607L16.4853 17.6137C16.4254 17.6658 16.3592 17.7103 16.2882 17.7462C16.2275 17.7781 16.1627 17.8019 16.0956 17.8169C16.0388 17.8339 15.9802 17.8443 15.9209 17.8478H15.7596C15.5204 17.8286 15.2962 17.7251 15.1281 17.5562L15.1012 17.5297C15.0339 17.4501 14.9795 17.3607 14.9399 17.2647C14.9399 17.2647 14.9399 17.2647 14.9399 17.2426V17.194C14.9227 17.1501 14.9121 17.104 14.9086 17.0571C14.8973 16.9838 14.8973 16.9094 14.9086 16.8362C14.9064 16.8215 14.9064 16.8067 14.9086 16.792C14.9179 16.7472 14.9298 16.7029 14.9444 16.6595C14.9611 16.6156 14.9806 16.5728 15.0026 16.5314C15.0128 16.5084 15.0248 16.4862 15.0385 16.4651C15.0658 16.4196 15.0973 16.3768 15.1325 16.337L15.2132 16.2619C15.2628 16.2183 15.3169 16.1798 15.3744 16.147C15.5768 16.0296 15.8156 15.9888 16.0463 16.0322C16.1913 16.0541 16.3292 16.1085 16.4495 16.1912C16.5129 16.2368 16.5714 16.2886 16.6241 16.3458C16.6715 16.3997 16.7122 16.459 16.7451 16.5225C16.7472 16.5274 16.7483 16.5327 16.7483 16.538C16.7483 16.5433 16.7472 16.5486 16.7451 16.5535C16.8209 16.6885 16.8595 16.8408 16.8571 16.9952C16.8593 17.0172 16.8593 17.0394 16.8571 17.0615L16.7406 17.4635L16.6734 17.3928ZM17.9635 25.87C17.8826 25.9414 17.7826 25.9885 17.6755 26.0057C17.5683 26.0229 17.4584 26.0096 17.3587 25.9672C17.2795 25.935 17.209 25.8851 17.1527 25.8214C17.0694 25.7263 17.0203 25.6068 17.013 25.4814C17.0057 25.356 17.0406 25.2317 17.1124 25.1278C17.1389 25.0886 17.1705 25.0529 17.2065 25.0218C17.3215 24.93 17.468 24.8856 17.6155 24.8978C17.7629 24.9101 17.8998 24.9781 17.9976 25.0877C18.0954 25.1972 18.1464 25.3398 18.1401 25.4856C18.1337 25.6314 18.0704 25.7691 17.9635 25.87ZM19.1281 23.0119C19.0564 23.0903 18.9769 23.1613 18.8907 23.2239C18.8551 23.2514 18.8177 23.2765 18.7787 23.299C18.4175 23.5218 17.9825 23.5972 17.566 23.5093C17.1494 23.4213 16.7839 23.1768 16.5469 22.8277C16.3099 22.4785 16.22 22.0521 16.2963 21.6388C16.3726 21.2254 16.6091 20.8575 16.9556 20.6132C16.9881 20.5871 17.0226 20.5635 17.0586 20.5425C17.1859 20.463 17.3249 20.4034 17.4707 20.3658C17.7175 20.2858 17.98 20.2646 18.2367 20.3039C18.6426 20.3787 19.0036 20.605 19.2445 20.9356C19.3898 21.1289 19.4879 21.3526 19.5312 21.5894C19.5823 21.839 19.5723 22.097 19.5022 22.342C19.4321 22.5871 19.3039 22.8122 19.1281 22.9986V23.0119Z" fill="url(#paint0_linear)"/>
<defs>
<linearGradient id="paint0_linear" x1="4.61967" y1="6.42411" x2="27.5532" y2="29.6783" gradientUnits="userSpaceOnUse">
<stop stop-color="#DA0B81"/>
<stop offset="0.62" stop-color="#A21262"/>
<stop offset="1" stop-color="#841552"/>
</linearGradient>
</defs>
</svg>
