<svg xmlns="http://www.w3.org/2000/svg" xmlns:xlink="http://www.w3.org/1999/xlink" viewBox="0 0 336.97 72.37"><defs><style>.cls-1{fill:#1d1d1b;}.cls-2{fill:url(#Unbenannter_Verlauf_23);}</style><linearGradient id="Unbenannter_Verlauf_23" x1="47.85" y1="14.58" x2="99.77" y2="66.5" gradientUnits="userSpaceOnUse"><stop offset="0" stop-color="#da0b81"/><stop offset="0.62" stop-color="#a21262"/><stop offset="1" stop-color="#841552"/></linearGradient></defs><g id="Ebene_2" data-name="Ebene 2"><g id="Ebene_1-2" data-name="Ebene 1"><path class="cls-1" d="M20.08,59.33q-9.25,0-14.66-5.82T0,37.44q0-9.73,5.66-15.63t14.82-5.89A22,22,0,0,1,33,19.34l-2.44,5.91a18.77,18.77,0,0,0-9.91-3,11.2,11.2,0,0,0-9.21,4.19Q8.06,30.61,8.07,37.67,8.07,45,11.34,49t9.32,4a23,23,0,0,0,10.51-2.65l1,6.11A23.4,23.4,0,0,1,20.08,59.33Z"/><path class="cls-1" d="M113.39,58.73V16.41H129a46.71,46.71,0,0,1,5.54.28A20.84,20.84,0,0,1,139,17.75a9.26,9.26,0,0,1,3.43,2.06,9.06,9.06,0,0,1,2.07,3.38,14.36,14.36,0,0,1,.77,4.94q0,8.42-7.64,11.06a31.81,31.81,0,0,1,3.86,6.51l6.28,13h-8.53l-4.92-11c-1.86-3.95-3-6.3-3.46-7-.33,0-1.41,0-3.25,0l-6.54-.05V58.73ZM129.72,35c3,0,5.15-.54,6.45-1.6s2-2.78,2-5.14a5.32,5.32,0,0,0-2-4.58q-2-1.47-6.08-1.47h-9V35h4.29Z"/><path class="cls-1" d="M174.92,59.33q-9.54,0-15-5.77t-5.52-16q0-10.23,5.53-16T175,15.92q9.54,0,15,5.74t5.5,16q0,10.11-5.53,15.9T174.92,59.33ZM165.67,49q3.15,4,9.28,4t9.26-4q3.12-4,3.13-11.27t-3.13-11.44Q181.09,22.2,175,22.2t-9.29,4.07q-3.16,4.08-3.16,11.43T165.67,49Z"/><path class="cls-1" d="M205.31,58.73V16.52h8.3q2.25,3.51,9.13,14.18l8.38,13,1.49,2.23,1.48,2.23q-.19-9.87-.2-10.25V16.52H241V58.73h-8.42l-19-29.68-1.38-2.27q.22,7.61.23,10.69V58.73Z"/><path class="cls-1" d="M255.12,58.73l16.74-42.87h3.54l16.13,42.87h-3.8l-5.47-14.55H264.48l-5.7,14.55ZM265.9,41.47h15q-6.48-18.62-7.34-21.89-.34,1.26-2.28,6.74t-3.69,10.31Z"/><path class="cls-1" d="M330,72.27s-.25-.35-.7-.93-1-1.33-1.73-2.27-1.44-2-2.21-3.06-1.54-2.27-2.32-3.52a31.68,31.68,0,0,1-1.85-3.42,25.8,25.8,0,0,1-4,.32,22.13,22.13,0,0,1-8.77-1.63,15.86,15.86,0,0,1-6.22-4.59,20.21,20.21,0,0,1-3.63-7,30.48,30.48,0,0,1-1.23-8.94q0-10.29,5.12-16.21t14.79-5.92q9.48,0,14.61,6T337,37.26a26.66,26.66,0,0,1-3.06,13.11,17.05,17.05,0,0,1-9.19,7.87c.35.61.81,1.4,1.4,2.36s1.6,2.49,3,4.58a34.76,34.76,0,0,0,3.69,4.67ZM305.43,51.11q4,5,11.74,5t11.67-5q3.89-5,3.89-13.91,0-9.2-3.92-14T317.2,18.39q-7.71,0-11.72,4.82t-4,14Q301.47,46.11,305.43,51.11Z"/><path class="cls-2" d="M106.6,34.69a2.22,2.22,0,0,0-4.27.58l-4.71.53a25.22,25.22,0,0,0-1.33-6.23L101,27.66a2.22,2.22,0,1,0-.37-.92l-4.66,1.89a25.38,25.38,0,0,0-2.62-5l7.2-5.27a2.22,2.22,0,1,0-.57-.83l-7.21,5.28a25.77,25.77,0,0,0-4.64-4.92l3-3.68a1.79,1.79,0,0,0,.52.19,2.24,2.24,0,1,0-1.3-.82l-3,3.69a25.41,25.41,0,0,0-5.44-3.16l1.54-3.26h0a2.24,2.24,0,1,0-.94-.45L81,13.7a24.83,24.83,0,0,0-4.61-1.31l1.25-5.9a2.23,2.23,0,1,0-2.22-2.7,2.21,2.21,0,0,0,1.24,2.48l-1.26,6a25.09,25.09,0,0,0-3.8-.28,23.1,23.1,0,0,0-2.64.14l-.33-7.72a2.19,2.19,0,0,0,1.59-1.68,2.23,2.23,0,1,0-2.64,1.72h0l.34,7.79a24.55,24.55,0,0,0-4.7,1.1L61.53,7.42a2.26,2.26,0,0,0,1.1-1.49A2.23,2.23,0,1,0,60,7.65a2,2,0,0,0,.59,0l1.71,6a24.36,24.36,0,0,0-4.41,2.16l-3.45-5.59a2.11,2.11,0,0,0,.63-1.12,2.23,2.23,0,1,0-2.65,1.72,2.13,2.13,0,0,0,1.18-.07L57,16.35a24.63,24.63,0,0,0-3.81,3.09L50.69,16.9a2.16,2.16,0,0,0,.21-.57,2.23,2.23,0,1,0-2.65,1.72A2.28,2.28,0,0,0,50,17.66l2.48,2.49a25.45,25.45,0,0,0-4.26,6L44,24a2.23,2.23,0,1,0-.58,1l.11-.13,4.28,2.22a25.86,25.86,0,0,0-2.05,6.49L42,32.81a2.23,2.23,0,1,0-.65,1.65,2.29,2.29,0,0,0,.46-.67l3.8.76a25,25,0,0,0-.25,3.59,25.44,25.44,0,0,0,.24,3.51l-3.73.42a2.23,2.23,0,1,0,.05,1.32,1.91,1.91,0,0,0,.06-.33l3.77-.42a25.39,25.39,0,0,0,1.67,5.69h0l-5,2a2.16,2.16,0,0,0-1.23-.86,2.23,2.23,0,1,0,1.57,2.73,2.19,2.19,0,0,0,0-.95l5-2a25.42,25.42,0,0,0,2.65,4.44L43.29,59a2.1,2.1,0,0,0-.87-.47A2.23,2.23,0,1,0,44,61.22a2.12,2.12,0,0,0-.11-1.45l7.22-5.28a25.79,25.79,0,0,0,3.1,3.26l-3.14,3.84a2,2,0,0,0-.4-.16,2.22,2.22,0,1,0,1.18.78L55,58.39A25.14,25.14,0,0,0,58.69,61l-1.28,2.71-.14,0a2.23,2.23,0,1,0,1,.58l1.3-2.77a25.58,25.58,0,0,0,4.95,1.94l-1,4.56a2.23,2.23,0,1,0,1,.3l1-4.61a26.55,26.55,0,0,0,4.67.68l.12,2.77a2.19,2.19,0,0,0-1.57,1.56,2.23,2.23,0,1,0,2.74-1.57l-.17,0-.12-2.7h.4a25.78,25.78,0,0,0,5.15-.51l1.09,3.81a2.22,2.22,0,1,0,1.36-.07,2.25,2.25,0,0,0-.36-.06L77.67,63.6a25.56,25.56,0,0,0,6.81-2.7l2.5,4a2.17,2.17,0,0,0-.62,1A2.23,2.23,0,1,0,89.1,64.4a2.16,2.16,0,0,0-1.26,0l-2.49-4a25.75,25.75,0,0,0,4.07-3.13l4.63,4.66a2,2,0,0,0-.27.6A2.23,2.23,0,1,0,96.51,61a2.17,2.17,0,0,0-1.75.26l-4.62-4.64a25.88,25.88,0,0,0,4.12-5.41L98,53.09a2.26,2.26,0,1,0,.47-.89l-3.7-1.92a25.69,25.69,0,0,0,2.15-5.53l2.91.58a2.36,2.36,0,0,0,.16.77,2.23,2.23,0,1,0,1.23-2.9A2.2,2.2,0,0,0,100,44.35l-2.88-.57a26.2,26.2,0,0,0,.61-5.64c0-.45,0-.9,0-1.34l4.74-.53a.38.38,0,0,0,0,.1,2.23,2.23,0,0,0,4.13-1.68Zm-15.71,0A2.28,2.28,0,0,1,91,37.56a2.37,2.37,0,0,1-.27.28,2.24,2.24,0,0,1-2.86.07,2.44,2.44,0,0,1-.29-.27,2.13,2.13,0,0,1-.39-.66,2.22,2.22,0,0,1,3.74-2.29ZM87.24,32a.44.44,0,0,1,.08.11,1.24,1.24,0,0,1,.21,1,1.19,1.19,0,0,1-.4.72,1.25,1.25,0,0,1-1.57.08.87.87,0,0,1-.23-.2,1.18,1.18,0,0,1-.3-.65,1.25,1.25,0,0,1,.41-1.15A1.27,1.27,0,0,1,87.24,32Zm-4.8-12.82a2.22,2.22,0,0,1,3.12.17l0,0a2.13,2.13,0,0,1,.48.93,2.2,2.2,0,0,1-.68,2.21,2.25,2.25,0,0,1-1.58.56,2.32,2.32,0,0,1-1-.31,2.17,2.17,0,0,1-.52-.44A2.24,2.24,0,0,1,82.44,19.21Zm-1.28,5.55a4.08,4.08,0,0,1,1.1.24,3.89,3.89,0,0,1,1.57,1.08,3.81,3.81,0,0,1,1,2.5,3.54,3.54,0,0,1-.22,1.4,3.84,3.84,0,0,1-1.1,1.63,3.79,3.79,0,0,1-2.45,1,4,4,0,0,1-1.42-.2A3.92,3.92,0,0,1,78,31.26a3.14,3.14,0,0,1-.38-.52,3.65,3.65,0,0,1-.46-1,3.91,3.91,0,0,1,1.19-4A3.83,3.83,0,0,1,81.16,24.76Zm-2.32,18.4A1.2,1.2,0,0,1,79,43a1.21,1.21,0,0,1,1-.3,1.14,1.14,0,0,1,.8.41,1.23,1.23,0,0,1,.24,1.26,1,1,0,0,1-.35.55,1.28,1.28,0,0,1-1.88-1.71Zm.23-8.47a.84.84,0,0,1,1.18.08.76.76,0,0,1,.12.19.83.83,0,0,1-1.37.91,1,1,0,0,1-.17-.29A.84.84,0,0,1,79.07,34.69Zm-4.5-2.36a1,1,0,0,1,.17.29.86.86,0,0,1-.25.89.8.8,0,0,1-.64.2.84.84,0,0,1-.67-1.17.79.79,0,0,1,.21-.28A.84.84,0,0,1,74.57,32.33ZM70,20.58a1.28,1.28,0,1,1-.11,1.81A1.29,1.29,0,0,1,70,20.58Zm-.48,5.88a2.43,2.43,0,0,1,.44-.53,2.25,2.25,0,0,1,2.54-.29,2.39,2.39,0,0,1,.61.49,2.43,2.43,0,0,1,.24.32,2.23,2.23,0,0,1-.44,2.83,1.33,1.33,0,0,1-.19.14,2.17,2.17,0,0,1-1.11.4,2.21,2.21,0,0,1-1.84-.74,1.39,1.39,0,0,1-.15-.19A2.23,2.23,0,0,1,69.53,26.46Zm-2.37-2.78a.84.84,0,0,1,1.18.08.44.44,0,0,1,.08.11.82.82,0,0,1,0,.83.76.76,0,0,1-.18.23.83.83,0,0,1-1.18-.07A.85.85,0,0,1,67.16,23.68ZM59.3,20a3.29,3.29,0,0,1,.58-1,2.79,2.79,0,0,1,.38-.39,3.61,3.61,0,0,1,3.23-.82,3.24,3.24,0,0,1,1.18.5,3.49,3.49,0,0,1,.75.64A3.66,3.66,0,0,1,66,23a3.73,3.73,0,0,1-.74,1l-.16.16a3.75,3.75,0,0,1-1.58.82,4.13,4.13,0,0,1-1.11.09,3.69,3.69,0,0,1-2.48-1.24A3.64,3.64,0,0,1,59.3,20ZM55.94,43a1.27,1.27,0,0,1-2.08-1.26,1.16,1.16,0,0,1,.39-.66,1.27,1.27,0,0,1,1.8.12,1,1,0,0,1,.18.28A1.26,1.26,0,0,1,55.94,43ZM61,32.29a2.24,2.24,0,0,1,.2-3.15l.15-.11a2.1,2.1,0,0,1,1-.41,2.24,2.24,0,0,1,2.12,3.54,1.93,1.93,0,0,1-.31.33A2.24,2.24,0,0,1,61,32.29Zm2.78,7.32a1.27,1.27,0,0,1,.33-1.38l0,0a1.28,1.28,0,0,1,1.81.11,1.27,1.27,0,0,1,.2.31,1.21,1.21,0,0,1,.1.7,1.25,1.25,0,0,1-.41.8A1.29,1.29,0,0,1,64,40,1.1,1.1,0,0,1,63.78,39.61Zm-6.2-3.7a1.12,1.12,0,0,1-.36.58,1.17,1.17,0,0,1-.53.27,1.27,1.27,0,0,1-1.1-.22l-.18-.17a1.21,1.21,0,0,1-.3-.95,1.24,1.24,0,0,1,.42-.85,1.27,1.27,0,0,1,1.8.11A1.24,1.24,0,0,1,57.58,35.91ZM50.35,31.6a.83.83,0,1,1,1.1,1.25.83.83,0,0,1-1.1-1.25Zm.5,8.32a2.23,2.23,0,1,1,3.15.19A2.23,2.23,0,0,1,50.85,39.92Zm14.2,10.14L65,50a1.29,1.29,0,0,1,.2-1.71,1.22,1.22,0,0,1,.75-.31,1.27,1.27,0,0,1,.94,2.23A1.29,1.29,0,0,1,65.05,50.06Zm7.33,7.22a3.76,3.76,0,0,1-1.5.82,4.2,4.2,0,0,1-1,.13A3.79,3.79,0,0,1,67,56.94l-.09-.11a3.74,3.74,0,0,1-.72-1.4A3.81,3.81,0,0,1,66.92,52a3.64,3.64,0,0,1,.43-.45,3.52,3.52,0,0,1,.8-.54,3.68,3.68,0,0,1,1.41-.4,3.42,3.42,0,0,1,1,.06,3.65,3.65,0,0,1,2.15,1.22A3.8,3.8,0,0,1,72.38,57.28Zm-1.31-9.87a.87.87,0,0,1,.87-.15.93.93,0,0,1,.31.22.84.84,0,0,1,0,1,.86.86,0,0,1-.13.14.83.83,0,0,1-1.1-1.25Zm3.69-8a1.91,1.91,0,0,1-.29.38l-.13.12a2.14,2.14,0,0,1-.44.3l0,0a1.72,1.72,0,0,1-.43.16,1.68,1.68,0,0,1-.39.07h-.36a2.23,2.23,0,0,1-1.41-.66l0,0-.06-.06,0,0a2.28,2.28,0,0,1-.36-.6s0,0,0-.05l0-.11h0v0h0a1.08,1.08,0,0,1-.07-.31,0,0,0,0,1,0,0l0,0s0,0,0,0a1.67,1.67,0,0,1,0-.5.34.34,0,0,1,0-.1,2.63,2.63,0,0,1,.08-.3,2.55,2.55,0,0,1,.13-.29,1.09,1.09,0,0,1,.08-.15,1.94,1.94,0,0,1,.21-.29l0,0,.18-.17a2.18,2.18,0,0,1,.36-.26,2.16,2.16,0,0,1,1.5-.26,2.14,2.14,0,0,1,.9.36,2.57,2.57,0,0,1,.39.35,2,2,0,0,1,.27.4.09.09,0,0,1,0,.07,2,2,0,0,1,.25,1,.76.76,0,0,1,0,.15l-.26.91Zm2.88,19.19a1.27,1.27,0,0,1-1.35.22,1.23,1.23,0,0,1-.46-.33,1.29,1.29,0,0,1-.09-1.57,1.21,1.21,0,0,1,.21-.24,1.28,1.28,0,0,1,1.69,1.92Zm2.6-6.47a3.53,3.53,0,0,1-.53.48,2.2,2.2,0,0,1-.25.17,3.66,3.66,0,0,1-4.07-6.08,1.88,1.88,0,0,1,.23-.16,3.26,3.26,0,0,1,.92-.4A3.67,3.67,0,0,1,78.25,46a3.58,3.58,0,0,1,2.25,1.43,3.54,3.54,0,0,1,.64,1.48A3.63,3.63,0,0,1,80.24,52.1Z"/></g></g></svg>